<svg width="70" height="70" viewBox="0 0 70 70" fill="none" xmlns="http://www.w3.org/2000/svg">
<rect width="70" height="70" rx="10" fill="black"/>
<path d="M15.179 42V39.7841L20.3565 34.9901C20.7969 34.5639 21.1662 34.1804 21.4645 33.8395C21.7675 33.4986 21.9972 33.1648 22.1534 32.8381C22.3097 32.5066 22.3878 32.1491 22.3878 31.7656C22.3878 31.3395 22.2907 30.9725 22.0966 30.6648C21.9025 30.3523 21.6373 30.1132 21.3011 29.9474C20.965 29.777 20.5838 29.6918 20.1577 29.6918C19.7126 29.6918 19.3243 29.7817 18.9929 29.9616C18.6615 30.1416 18.4058 30.3996 18.2259 30.7358C18.0459 31.072 17.956 31.4721 17.956 31.9361H15.0369C15.0369 30.9844 15.2524 30.1581 15.6832 29.4574C16.1141 28.7566 16.7178 28.2145 17.4943 27.831C18.2708 27.4474 19.1657 27.2557 20.179 27.2557C21.2206 27.2557 22.1274 27.4403 22.8991 27.8097C23.6757 28.1742 24.2794 28.6809 24.7102 29.3295C25.1411 29.9782 25.3565 30.7216 25.3565 31.5597C25.3565 32.1089 25.2476 32.651 25.0298 33.1861C24.8168 33.7211 24.4356 34.3153 23.8864 34.9688C23.3371 35.6174 22.563 36.3963 21.5639 37.3054L19.4403 39.3864V39.4858H25.5483V42H15.179ZM27.244 39.4432V37.0213L33.3164 27.4545H35.4045V30.8068H34.1687L30.3406 36.8651V36.9787H38.9698V39.4432H27.244ZM34.2255 42V38.7045L34.2823 37.6321V27.4545H37.1658V42H34.2255ZM41.104 42V27.4545H44.1793V33.456H50.4222V27.4545H53.4904V42H50.4222V35.9915H44.1793V42H41.104Z" fill="white"/>
</svg>
