<svg width="100" height="100" viewBox="0 0 100 100" fill="none" xmlns="http://www.w3.org/2000/svg">
<rect x="1.5" y="1.5" width="97" height="97" rx="13.5" fill="black"/>
<rect x="1.5" y="1.5" width="97" height="97" rx="13.5" stroke="white" stroke-width="3"/>
<path d="M30.9283 68H22.6896L35.2429 31.6364H45.1506L57.6861 68H49.4474L40.3388 39.946H40.0547L30.9283 68ZM30.4134 53.7067H49.8736V59.7081H30.4134V53.7067ZM67.0673 68V40.7273H74.6312V68H67.0673ZM70.867 37.2116C69.7425 37.2116 68.7778 36.8388 67.9728 36.093C67.1797 35.3355 66.7832 34.4299 66.7832 33.3764C66.7832 32.3348 67.1797 31.4411 67.9728 30.6953C68.7778 29.9377 69.7425 29.5589 70.867 29.5589C71.9915 29.5589 72.9503 29.9377 73.7434 30.6953C74.5484 31.4411 74.9508 32.3348 74.9508 33.3764C74.9508 34.4299 74.5484 35.3355 73.7434 36.093C72.9503 36.8388 71.9915 37.2116 70.867 37.2116Z" fill="white"/>
</svg>
