<svg width="128" height="128" viewBox="0 0 128 128" fill="none" xmlns="http://www.w3.org/2000/svg">
<path fill-rule="evenodd" clip-rule="evenodd" d="M50 5C50 2.23858 52.2386 0 55 0H73C75.7614 0 78 2.23858 78 5V15.9865C81.5261 17.0129 84.8912 18.4172 88.0486 20.1526L95.8199 12.3812C97.7726 10.4286 100.938 10.4286 102.891 12.3812L115.619 25.1092C117.572 27.0618 117.572 30.2276 115.619 32.1802L107.848 39.9516C109.583 43.109 110.987 46.474 112.014 50H123C125.761 50 128 52.2386 128 55V73C128 75.7614 125.761 78 123 78H112.014C110.987 81.5256 109.583 84.8903 107.848 88.0473L115.621 95.8199C117.573 97.7726 117.573 100.938 115.621 102.891L102.893 115.619C100.94 117.572 97.7743 117.572 95.8217 115.619L88.0497 107.847C84.8919 109.583 81.5265 110.987 78 112.014V123C78 125.761 75.7614 128 73 128H55C52.2386 128 50 125.761 50 123V112.014C46.474 110.987 43.109 109.583 39.9516 107.848L32.1801 115.619C30.2274 117.572 27.0616 117.572 25.109 115.619L12.3811 102.891C10.4285 100.939 10.4285 97.7727 12.3811 95.8201L20.1526 88.0486C18.4172 84.8912 17.0129 81.5261 15.9865 78H5C2.23857 78 0 75.7614 0 73V55C0 52.2386 2.23858 50 5 50H15.9865C17.013 46.4735 18.4175 43.1081 20.1531 39.9503L12.3829 32.1801C10.4302 30.2274 10.4302 27.0616 12.3829 25.109L25.1108 12.3811C27.0634 10.4285 30.2292 10.4285 32.1819 12.3811L39.9527 20.1519C43.1097 18.4168 46.4744 17.0127 50 15.9865V5Z" fill="white"/>
</svg>
