<svg width="168" height="211" viewBox="0 0 168 211" fill="none" xmlns="http://www.w3.org/2000/svg">
<path d="M59.5 210.5H150L167.005 127.367C170.116 112.154 161.106 97.0818 146.234 92.6201L94.6265 77.138C90.3967 75.869 87.5 71.9758 87.5 67.5597V10.5C87.5 4.97715 83.0229 0.5 77.5 0.5H69.5C63.9771 0.5 59.5 4.97715 59.5 10.5V131.979C59.5 135.906 55.1802 138.3 51.85 136.219L21.7589 117.412C18.0382 115.086 13.2361 115.458 9.91742 118.328L4.15239 123.314C0.13922 126.785 -0.464552 132.786 2.77676 136.987L59.5 210.5Z" fill="white"/>
</svg>
