<svg width="64" height="64" viewBox="0 0 64 64" fill="none" xmlns="http://www.w3.org/2000/svg">
<rect x="1" y="1" width="62" height="62" rx="11" fill="black"/>
<rect x="1" y="1" width="62" height="62" rx="11" stroke="black" stroke-width="2"/>
<mask id="mask0_384_6859" style="mask-type:alpha" maskUnits="userSpaceOnUse" x="17" y="17" width="30" height="30">
<rect x="17" y="17" width="30" height="30" fill="white"/>
</mask>
<g mask="url(#mask0_384_6859)">
<path d="M23.9062 39.5C24.7812 39.5 25.5208 39.1979 26.125 38.5938C26.7292 37.9896 27.0312 37.25 27.0312 36.375C27.0312 35.875 26.9167 35.3854 26.6875 34.9062C26.4583 34.4271 26.1146 34.0417 25.6562 33.75L24.5312 33V25.125C24.5312 24.9375 24.474 24.7865 24.3594 24.6719C24.2448 24.5573 24.0938 24.5 23.9062 24.5C23.7188 24.5 23.5677 24.5573 23.4531 24.6719C23.3385 24.7865 23.2812 24.9375 23.2812 25.125V33L22.1563 33.75C21.6979 34.0625 21.3542 34.4479 21.125 34.9062C20.8958 35.3646 20.7812 35.8542 20.7812 36.375C20.7812 37.25 21.0833 37.9896 21.6875 38.5938C22.2917 39.1979 23.0312 39.5 23.9062 39.5ZM23.9062 42C22.3438 42 21.0156 41.4583 19.9219 40.375C18.8281 39.2917 18.2812 37.9583 18.2812 36.375C18.2812 35.375 18.5104 34.4792 18.9688 33.6875C19.4271 32.8958 20.0312 32.25 20.7812 31.75V25.125C20.7812 24.25 21.0833 23.5104 21.6875 22.9062C22.2917 22.3021 23.0312 22 23.9062 22C24.7812 22 25.5208 22.3021 26.125 22.9062C26.7292 23.5104 27.0312 24.25 27.0312 25.125V31.75C27.7812 32.25 28.3854 32.8958 28.8438 33.6875C29.3021 34.4792 29.5312 35.375 29.5312 36.375C29.5312 37.9375 28.9844 39.2656 27.8906 40.3594C26.7969 41.4531 25.4688 42 23.9062 42ZM34.125 35.75C33.125 35.0625 32.3125 34.1771 31.6875 33.0938C31.0625 32.0104 30.75 30.8125 30.75 29.5C30.75 27.4167 31.4792 25.6458 32.9375 24.1875C34.3958 22.7292 36.1667 22 38.25 22C40.3333 22 42.1042 22.7292 43.5625 24.1875C45.0208 25.6458 45.75 27.4167 45.75 29.5C45.75 30.8125 45.4375 32.0104 44.8125 33.0938C44.1875 34.1771 43.375 35.0625 42.375 35.75H34.125ZM35 33.25H41.625C42.1875 32.75 42.599 32.1875 42.8594 31.5625C43.1198 30.9375 43.25 30.25 43.25 29.5C43.25 28.125 42.7604 26.9479 41.7813 25.9688C40.8021 24.9896 39.625 24.5 38.25 24.5C36.875 24.5 35.6979 24.9896 34.7188 25.9688C33.7396 26.9479 33.25 28.125 33.25 29.5C33.25 30.25 33.401 30.9375 33.7031 31.5625C34.0052 32.1875 34.4375 32.75 35 33.25ZM38.25 42C37.75 42 37.3125 41.8125 36.9375 41.4375C36.5625 41.0625 36.375 40.625 36.375 40.125H40.125C40.125 40.625 39.9375 41.0625 39.5625 41.4375C39.1875 41.8125 38.75 42 38.25 42ZM34.5 39.5V37H42V39.5H34.5Z" fill="white"/>
</g>
</svg>
