<svg width="64" height="64" viewBox="0 0 64 64" fill="none" xmlns="http://www.w3.org/2000/svg">
<rect x="1" y="1" width="62" height="62" rx="11" fill="black"/>
<rect x="1" y="1" width="62" height="62" rx="11" stroke="black" stroke-width="2"/>
<mask id="mask0_384_6855" style="mask-type:alpha" maskUnits="userSpaceOnUse" x="17" y="17" width="30" height="30">
<rect x="17" y="17" width="30" height="30" fill="white"/>
</mask>
<g mask="url(#mask0_384_6855)">
<path d="M30.75 38.25H25.75C24.0208 38.25 22.5469 37.6406 21.3281 36.4219C20.1094 35.2031 19.5 33.7292 19.5 32C19.5 30.2708 20.1094 28.7969 21.3281 27.5781C22.5469 26.3594 24.0208 25.75 25.75 25.75H30.75V28.25H25.75C24.7083 28.25 23.8229 28.6146 23.0938 29.3438C22.3646 30.0729 22 30.9583 22 32C22 33.0417 22.3646 33.9271 23.0938 34.6562C23.8229 35.3854 24.7083 35.75 25.75 35.75H30.75V38.25ZM27 33.25V30.75H37V33.25H27ZM33.25 38.25V35.75H38.25C39.2917 35.75 40.1771 35.3854 40.9062 34.6562C41.6354 33.9271 42 33.0417 42 32C42 30.9583 41.6354 30.0729 40.9062 29.3438C40.1771 28.6146 39.2917 28.25 38.25 28.25H33.25V25.75H38.25C39.9792 25.75 41.4531 26.3594 42.6719 27.5781C43.8906 28.7969 44.5 30.2708 44.5 32C44.5 33.7292 43.8906 35.2031 42.6719 36.4219C41.4531 37.6406 39.9792 38.25 38.25 38.25H33.25Z" fill="white"/>
</g>
</svg>
