<svg width="70" height="70" viewBox="0 0 70 70" fill="none" xmlns="http://www.w3.org/2000/svg">
<rect width="70" height="70" rx="10" fill="black"/>
<mask id="mask0_644_7260" style="mask-type:alpha" maskUnits="userSpaceOnUse" x="15" y="15" width="40" height="40">
<rect x="15" y="15" width="40" height="40" fill="white"/>
</mask>
<g mask="url(#mask0_644_7260)">
<path d="M35.0013 40.0002C36.5569 40.0002 37.9596 39.6182 39.2096 38.8543C40.4596 38.0904 41.4457 37.0835 42.168 35.8335C41.1957 35.0279 40.0985 34.4099 38.8763 33.9793C37.6541 33.5488 36.3624 33.3335 35.0013 33.3335C33.6402 33.3335 32.3485 33.5488 31.1263 33.9793C29.9041 34.4099 28.8069 35.0279 27.8346 35.8335C28.5569 37.0835 29.543 38.0904 30.793 38.8543C32.043 39.6182 33.4457 40.0002 35.0013 40.0002ZM35.0013 31.6668C35.918 31.6668 36.7027 31.3404 37.3555 30.6877C38.0082 30.0349 38.3346 29.2502 38.3346 28.3335C38.3346 27.4168 38.0082 26.6321 37.3555 25.9793C36.7027 25.3266 35.918 25.0002 35.0013 25.0002C34.0846 25.0002 33.2999 25.3266 32.6471 25.9793C31.9944 26.6321 31.668 27.4168 31.668 28.3335C31.668 29.2502 31.9944 30.0349 32.6471 30.6877C33.2999 31.3404 34.0846 31.6668 35.0013 31.6668ZM35.0013 47.2502C38.3902 44.1391 40.9041 41.3127 42.543 38.771C44.1819 36.2293 45.0013 33.9724 45.0013 32.0002C45.0013 28.9724 44.036 26.4932 42.1055 24.5627C40.1749 22.6321 37.8069 21.6668 35.0013 21.6668C32.1957 21.6668 29.8277 22.6321 27.8971 24.5627C25.9666 26.4932 25.0013 28.9724 25.0013 32.0002C25.0013 33.9724 25.8207 36.2293 27.4596 38.771C29.0985 41.3127 31.6124 44.1391 35.0013 47.2502ZM35.0013 51.6668C30.5291 47.8613 27.1888 44.3266 24.9805 41.0627C22.7721 37.7988 21.668 34.7779 21.668 32.0002C21.668 27.8335 23.0082 24.5141 25.6888 22.0418C28.3694 19.5696 31.4735 18.3335 35.0013 18.3335C38.5291 18.3335 41.6332 19.5696 44.3138 22.0418C46.9944 24.5141 48.3346 27.8335 48.3346 32.0002C48.3346 34.7779 47.2305 37.7988 45.0221 41.0627C42.8138 44.3266 39.4735 47.8613 35.0013 51.6668Z" fill="white"/>
</g>
</svg>
