<svg width="64" height="64" viewBox="0 0 64 64" fill="none" xmlns="http://www.w3.org/2000/svg">
<rect x="1" y="1" width="62" height="62" rx="11" fill="black"/>
<rect x="1" y="1" width="62" height="62" rx="11" stroke="black" stroke-width="2"/>
<mask id="mask0_640_7248" style="mask-type:alpha" maskUnits="userSpaceOnUse" x="17" y="17" width="30" height="30">
<rect x="17" y="17" width="30" height="30" fill="white"/>
</mask>
<g mask="url(#mask0_640_7248)">
<path d="M32 43.6563C33.5625 42.1771 34.7865 40.7552 35.6719 39.3906C36.5573 38.026 37 36.875 37 35.9375C37 34.5 36.5156 33.276 35.5469 32.2656C34.5781 31.2552 33.3958 30.75 32 30.75C30.6042 30.75 29.4219 31.2552 28.4531 32.2656C27.4844 33.276 27 34.5 27 35.9375C27 36.875 27.4427 38.026 28.3281 39.3906C29.2135 40.7552 30.4375 42.1771 32 43.6563ZM32 47C29.4792 44.8542 27.599 42.8646 26.3594 41.0313C25.1198 39.1979 24.5 37.5 24.5 35.9375C24.5 33.8125 25.224 32 26.6719 30.5C28.1198 29 29.8958 28.25 32 28.25C34.1042 28.25 35.8802 29 37.3281 30.5C38.776 32 39.5 33.8125 39.5 35.9375C39.5 37.5 38.8802 39.1979 37.6406 41.0313C36.401 42.8646 34.5208 44.8542 32 47ZM32 37.625C32.5208 37.625 32.9635 37.4427 33.3281 37.0781C33.6927 36.7135 33.875 36.2708 33.875 35.75C33.875 35.2292 33.6927 34.7865 33.3281 34.4219C32.9635 34.0573 32.5208 33.875 32 33.875C31.4792 33.875 31.0365 34.0573 30.6719 34.4219C30.3073 34.7865 30.125 35.2292 30.125 35.75C30.125 36.2708 30.3073 36.7135 30.6719 37.0781C31.0365 37.4427 31.4792 37.625 32 37.625ZM27.5625 26.3125L25.8125 24.5625C26.6458 23.7292 27.5937 23.0938 28.6562 22.6563C29.7187 22.2188 30.8333 22 32 22C33.1667 22 34.2812 22.2188 35.3437 22.6563C36.4062 23.0938 37.3542 23.7292 38.1875 24.5625L36.4375 26.3125C35.8333 25.7083 35.151 25.2552 34.3906 24.9531C33.6302 24.651 32.8333 24.5 32 24.5C31.1667 24.5 30.3698 24.651 29.6094 24.9531C28.849 25.2552 28.1667 25.7083 27.5625 26.3125ZM24.0625 22.7812L22.2812 21.0313C23.5938 19.7188 25.0833 18.7188 26.75 18.0312C28.4167 17.3437 30.1667 17 32 17C33.8333 17 35.5833 17.3437 37.25 18.0312C38.9167 18.7188 40.4063 19.7188 41.7188 21.0313L39.9688 22.8125C38.9063 21.75 37.6875 20.9323 36.3125 20.3594C34.9375 19.7865 33.5 19.5 32 19.5C30.5 19.5 29.0677 19.7812 27.7031 20.3437C26.3385 20.9062 25.125 21.7187 24.0625 22.7812Z" fill="white"/>
</g>
</svg>
