<svg width="100" height="100" viewBox="0 0 100 100" fill="none" xmlns="http://www.w3.org/2000/svg">
<rect x="1.5" y="1.5" width="97" height="97" rx="13.5" fill="black"/>
<rect x="1.5" y="1.5" width="97" height="97" rx="13.5" stroke="white" stroke-width="3"/>
<path d="M20.6605 68V31.6364H35.0071C37.7652 31.6364 40.1148 32.1631 42.0561 33.2166C43.9974 34.2583 45.477 35.7083 46.495 37.5668C47.5249 39.4134 48.0398 41.544 48.0398 43.9588C48.0398 46.3736 47.5189 48.5043 46.4773 50.3509C45.4356 52.1974 43.9264 53.6357 41.9496 54.6655C39.9846 55.6953 37.6054 56.2102 34.8118 56.2102H25.6676V50.049H33.5689C35.0485 50.049 36.2678 49.7945 37.2266 49.2855C38.1972 48.7647 38.9193 48.0485 39.3928 47.1371C39.8781 46.2138 40.1207 45.1544 40.1207 43.9588C40.1207 42.7514 39.8781 41.6979 39.3928 40.7983C38.9193 39.8868 38.1972 39.1825 37.2266 38.6854C36.2559 38.1764 35.0249 37.9219 33.5334 37.9219H28.3487V68H20.6605ZM80.5833 48.5043L73.6586 48.9304C73.5402 48.3385 73.2857 47.8059 72.8951 47.3324C72.5044 46.8471 71.9895 46.4624 71.3503 46.1783C70.723 45.8823 69.9713 45.7344 69.0953 45.7344C67.9235 45.7344 66.9351 45.983 66.1301 46.4801C65.3252 46.9654 64.9228 47.6165 64.9228 48.4332C64.9228 49.0843 65.1832 49.6347 65.704 50.0845C66.2248 50.5343 67.1185 50.8954 68.3851 51.1676L73.3212 52.1619C75.9727 52.7064 77.9495 53.5824 79.2516 54.7898C80.5537 55.9972 81.2047 57.5833 81.2047 59.5483C81.2047 61.3357 80.678 62.9041 79.6245 64.2536C78.5828 65.603 77.1505 66.6565 75.3276 67.4141C73.5165 68.1598 71.4273 68.5327 69.0598 68.5327C65.4495 68.5327 62.5731 67.781 60.4306 66.2777C58.2999 64.7625 57.0511 62.7029 56.6841 60.0987L64.1238 59.7081C64.3487 60.8089 64.8932 61.6494 65.7573 62.2294C66.6214 62.7976 67.7282 63.0817 69.0776 63.0817C70.4034 63.0817 71.4687 62.8272 72.2736 62.3182C73.0904 61.7973 73.5047 61.1286 73.5165 60.3118C73.5047 59.6252 73.2147 59.063 72.6465 58.625C72.0783 58.1752 71.2024 57.8319 70.0186 57.5952L65.2956 56.6541C62.6323 56.1214 60.6496 55.1982 59.3475 53.8842C58.0572 52.5703 57.4121 50.8954 57.4121 48.8594C57.4121 47.1075 57.8856 45.5982 58.8326 44.3317C59.7914 43.0651 61.1349 42.0885 62.8631 41.402C64.6032 40.7154 66.6391 40.3722 68.9711 40.3722C72.4157 40.3722 75.1264 41.1001 77.1032 42.5561C79.0918 44.0121 80.2518 45.9948 80.5833 48.5043Z" fill="white"/>
</svg>
