<svg width="70" height="70" viewBox="0 0 70 70" fill="none" xmlns="http://www.w3.org/2000/svg">
<g id="Frame 9640">
<rect width="70" height="70" rx="10" fill="black"/>
<g id="diversity_2">
<mask id="mask0_640_7244" style="mask-type:alpha" maskUnits="userSpaceOnUse" x="12" y="13" width="45" height="45">
<rect id="Bounding box" x="12" y="13" width="45" height="45" fill="white"/>
</mask>
<g mask="url(#mask0_640_7244)">
<path id="diversity_2_2" d="M29.7852 49.9751C28.7789 49.9751 27.8766 49.7126 27.0781 49.1876C26.2797 48.6626 25.6617 47.9407 25.2242 47.022C24.8742 47.4813 24.4313 47.8368 23.8953 48.0884C23.3594 48.3399 22.807 48.4657 22.2383 48.4657C21.1227 48.4657 20.1875 48.0829 19.4328 47.3173C18.6781 46.5517 18.3008 45.622 18.3008 44.5282C18.3008 43.5876 18.607 42.7399 19.2195 41.9853C19.832 41.2306 20.6086 40.7985 21.5492 40.6892C21.243 40.2517 21.0078 39.7868 20.8438 39.2946C20.6797 38.8024 20.5977 38.2829 20.5977 37.736C20.5977 36.861 20.8219 36.0407 21.2703 35.2751C21.7188 34.5095 22.3477 33.886 23.157 33.4048C23.2664 33.7985 23.4141 34.2196 23.6 34.6681C23.7859 35.1165 23.9992 35.5048 24.2398 35.8329C23.9336 36.0735 23.693 36.3634 23.518 36.7024C23.343 37.0415 23.2555 37.397 23.2555 37.7688C23.2555 38.9938 23.7586 39.7485 24.7648 40.0329C25.7711 40.3173 26.7227 40.547 27.6195 40.722L28.243 41.772C28.0023 42.472 27.7945 43.0681 27.6195 43.5603C27.4445 44.0524 27.357 44.4954 27.357 44.8892C27.357 45.5454 27.5922 46.1196 28.0625 46.6118C28.5328 47.104 29.107 47.3501 29.7852 47.3501C30.6164 47.3501 31.3055 46.9782 31.8523 46.2345C32.3992 45.4907 32.8477 44.6157 33.1977 43.6095C33.5477 42.6032 33.8156 41.586 34.0016 40.5579C34.1875 39.5298 34.3352 38.7423 34.4445 38.1954L37.0039 38.8845C36.807 39.8688 36.5664 40.9954 36.282 42.2642C35.9977 43.5329 35.5984 44.7415 35.0844 45.8899C34.5703 47.0384 33.8922 48.0063 33.05 48.7938C32.2078 49.5813 31.1195 49.9751 29.7852 49.9751ZM22.2383 45.8407C22.6102 45.8407 22.9219 45.7149 23.1734 45.4634C23.425 45.2118 23.5508 44.9001 23.5508 44.5282C23.5508 44.1563 23.425 43.8446 23.1734 43.5931C22.9219 43.3415 22.6102 43.2157 22.2383 43.2157C21.8664 43.2157 21.5547 43.3415 21.3031 43.5931C21.0516 43.8446 20.9258 44.1563 20.9258 44.5282C20.9258 44.9001 21.0516 45.2118 21.3031 45.4634C21.5547 45.7149 21.8664 45.8407 22.2383 45.8407ZM31.557 40.6563C30.5508 39.7595 29.6375 38.9228 28.8172 38.1462C27.9969 37.3696 27.2914 36.6149 26.7008 35.8821C26.1102 35.1493 25.6563 34.4165 25.3391 33.6837C25.0219 32.9509 24.8633 32.1907 24.8633 31.4032C24.8633 29.9813 25.35 28.7837 26.3234 27.8103C27.2969 26.8368 28.4945 26.3501 29.9164 26.3501C30.0039 26.3501 30.0805 26.3556 30.1461 26.3665C30.2117 26.3774 30.2883 26.3829 30.3758 26.3829C30.2883 26.1642 30.2227 25.9454 30.1789 25.7267C30.1352 25.5079 30.1133 25.2782 30.1133 25.0376C30.1133 23.9438 30.4961 23.0142 31.2617 22.2485C32.0273 21.4829 32.957 21.1001 34.0508 21.1001C35.1445 21.1001 36.0742 21.4829 36.8398 22.2485C37.6055 23.0142 37.9883 23.9438 37.9883 25.0376C37.9883 25.2782 37.9664 25.5024 37.9227 25.7103C37.8789 25.9181 37.8133 26.1313 37.7258 26.3501H38.1852C39.4977 26.3501 40.6133 26.7712 41.532 27.6134C42.4508 28.4556 42.9977 29.5001 43.1727 30.747C42.7789 30.6813 42.3359 30.6485 41.8438 30.6485C41.3516 30.6485 40.8977 30.6704 40.482 30.7142C40.3289 30.211 40.05 29.7954 39.6453 29.4673C39.2406 29.1392 38.7539 28.9751 38.1852 28.9751C37.4195 28.9751 36.8234 29.1993 36.3969 29.6478C35.9703 30.0962 35.3852 30.747 34.6414 31.6001H33.4273C32.6617 30.7032 32.0656 30.0415 31.6391 29.6149C31.2125 29.1884 30.6383 28.9751 29.9164 28.9751C29.2164 28.9751 28.6367 29.2048 28.1773 29.6642C27.718 30.1235 27.4883 30.7032 27.4883 31.4032C27.4883 31.9063 27.6305 32.4259 27.9148 32.9618C28.1992 33.4978 28.5984 34.0665 29.1125 34.6681C29.6266 35.2696 30.25 35.9095 30.9828 36.5876C31.7156 37.2657 32.5305 37.9985 33.4273 38.786L31.557 40.6563ZM34.0508 26.3501C34.4227 26.3501 34.7344 26.2243 34.9859 25.9728C35.2375 25.7212 35.3633 25.4095 35.3633 25.0376C35.3633 24.6657 35.2375 24.354 34.9859 24.1024C34.7344 23.8509 34.4227 23.7251 34.0508 23.7251C33.6789 23.7251 33.3672 23.8509 33.1156 24.1024C32.8641 24.354 32.7383 24.6657 32.7383 25.0376C32.7383 25.4095 32.8641 25.7212 33.1156 25.9728C33.3672 26.2243 33.6789 26.3501 34.0508 26.3501ZM38.2836 49.9751C37.8023 49.9751 37.3266 49.9095 36.8562 49.7782C36.3859 49.647 35.932 49.4392 35.4945 49.1548C35.7352 48.8485 35.9758 48.4876 36.2164 48.072C36.457 47.6563 36.6758 47.2735 36.8727 46.9235C37.1133 47.0767 37.3539 47.186 37.5945 47.2517C37.8352 47.3173 38.0758 47.3501 38.3164 47.3501C39.0164 47.3501 39.6016 47.104 40.0719 46.6118C40.5422 46.1196 40.7773 45.5345 40.7773 44.8563C40.7773 44.4407 40.6898 43.9923 40.5148 43.511C40.3398 43.0298 40.132 42.4392 39.8914 41.7392L40.5148 40.6892C41.4336 40.5142 42.3906 40.2845 43.3859 40.0001C44.3813 39.7157 44.8789 38.961 44.8789 37.736C44.8789 36.861 44.5563 36.2267 43.9109 35.8329C43.2656 35.4392 42.5602 35.2423 41.7945 35.2423C40.8758 35.2423 39.8039 35.4173 38.5789 35.7673C37.3539 36.1173 35.9211 36.5657 34.2805 37.1126L33.5914 34.5532C35.2977 34.0063 36.818 33.547 38.1523 33.1751C39.4867 32.8032 40.7117 32.6173 41.8273 32.6173C43.3367 32.6173 44.6602 33.0657 45.7977 33.9626C46.9352 34.8595 47.5039 36.1173 47.5039 37.736C47.5039 38.2829 47.4219 38.8024 47.2578 39.2946C47.0938 39.7868 46.8586 40.2517 46.5523 40.6892C47.493 40.7985 48.2695 41.2306 48.882 41.9853C49.4945 42.7399 49.8008 43.5876 49.8008 44.5282C49.8008 45.622 49.4234 46.5517 48.6688 47.3173C47.9141 48.0829 46.9789 48.4657 45.8633 48.4657C45.2945 48.4657 44.7422 48.3399 44.2063 48.0884C43.6703 47.8368 43.2273 47.4813 42.8773 47.022C42.4398 47.9407 41.8219 48.6626 41.0234 49.1876C40.225 49.7126 39.3117 49.9751 38.2836 49.9751ZM45.8961 45.8407C46.268 45.8407 46.5742 45.7149 46.8148 45.4634C47.0555 45.2118 47.1758 44.9001 47.1758 44.5282C47.1758 44.1563 47.05 43.8392 46.7984 43.5767C46.5469 43.3142 46.2352 43.1829 45.8633 43.1829C45.4914 43.1829 45.1797 43.3087 44.9281 43.5603C44.6766 43.8118 44.5508 44.1235 44.5508 44.4954C44.5508 44.8673 44.682 45.1845 44.9445 45.447C45.207 45.7095 45.5242 45.8407 45.8961 45.8407Z" fill="white"/>
</g>
</g>
</g>
</svg>
