<svg width="70" height="70" viewBox="0 0 70 70" fill="none" xmlns="http://www.w3.org/2000/svg">
<rect width="70" height="70" rx="10" fill="black"/>
<mask id="mask0_644_7272" style="mask-type:alpha" maskUnits="userSpaceOnUse" x="15" y="15" width="40" height="40">
<rect x="15" y="15" width="40" height="40" fill="white"/>
</mask>
<g mask="url(#mask0_644_7272)">
<path d="M46.6654 28.3335C47.1376 28.3335 47.5334 28.1738 47.8529 27.8543C48.1723 27.5349 48.332 27.1391 48.332 26.6668C48.332 26.1946 48.1723 25.7988 47.8529 25.4793C47.5334 25.1599 47.1376 25.0002 46.6654 25.0002C46.1931 25.0002 45.7973 25.1599 45.4779 25.4793C45.1584 25.7988 44.9987 26.1946 44.9987 26.6668C44.9987 27.1391 45.1584 27.5349 45.4779 27.8543C45.7973 28.1738 46.1931 28.3335 46.6654 28.3335ZM46.6654 31.6668C45.2487 31.6668 44.0612 31.1877 43.1029 30.2293C42.1445 29.271 41.6654 28.0835 41.6654 26.6668C41.6654 25.2779 42.1445 24.0974 43.1029 23.1252C44.0612 22.1529 45.2487 21.6668 46.6654 21.6668C48.0543 21.6668 49.2348 22.1529 50.207 23.1252C51.1793 24.0974 51.6654 25.2779 51.6654 26.6668C51.6654 28.0835 51.1793 29.271 50.207 30.2293C49.2348 31.1877 48.0543 31.6668 46.6654 31.6668ZM34.9987 26.6668C35.6931 26.6668 36.2834 26.4307 36.7695 25.9585C37.2556 25.4863 37.4987 24.8891 37.4987 24.1668C37.4987 23.4724 37.2556 22.8821 36.7695 22.396C36.2834 21.9099 35.6931 21.6668 34.9987 21.6668C34.2765 21.6668 33.6793 21.9099 33.207 22.396C32.7348 22.8821 32.4987 23.4724 32.4987 24.1668C32.4987 24.8891 32.7348 25.4863 33.207 25.9585C33.6793 26.4307 34.2765 26.6668 34.9987 26.6668ZM34.9987 30.0002C33.3598 30.0002 31.9779 29.4377 30.8529 28.3127C29.7279 27.1877 29.1654 25.8057 29.1654 24.1668C29.1654 22.5557 29.7279 21.1807 30.8529 20.0418C31.9779 18.9029 33.3598 18.3335 34.9987 18.3335C36.6098 18.3335 37.9848 18.9029 39.1237 20.0418C40.2626 21.1807 40.832 22.5557 40.832 24.1668C40.832 25.8057 40.2626 27.1877 39.1237 28.3127C37.9848 29.4377 36.6098 30.0002 34.9987 30.0002ZM28.332 37.2918C28.332 38.1252 28.7765 39.0974 29.6654 40.2085C30.5543 41.3196 32.332 43.0835 34.9987 45.5002C37.6098 43.1391 39.3737 41.4029 40.2904 40.2918C41.207 39.1807 41.6654 38.1807 41.6654 37.2918C41.6654 36.6529 41.457 36.1113 41.0404 35.6668C40.6237 35.2224 40.1098 35.0002 39.4987 35.0002C39.1098 35.0002 38.7418 35.0835 38.3945 35.2502C38.0473 35.4168 37.7626 35.6529 37.5404 35.9585L35.5404 38.3335H34.4154L32.4154 35.9585C32.1931 35.6529 31.9084 35.4168 31.5612 35.2502C31.214 35.0835 30.8598 35.0002 30.4987 35.0002C29.8598 35.0002 29.339 35.2224 28.9362 35.6668C28.5334 36.1113 28.332 36.6529 28.332 37.2918ZM24.9987 37.2918C24.9987 35.8196 25.4987 34.5141 26.4987 33.3752C27.4987 32.2363 28.832 31.6668 30.4987 31.6668C31.3598 31.6668 32.1862 31.8613 32.9779 32.2502C33.7695 32.6391 34.4431 33.1668 34.9987 33.8335C35.5543 33.1668 36.2209 32.6391 36.9987 32.2502C37.7765 31.8613 38.6098 31.6668 39.4987 31.6668C41.1654 31.6668 42.4987 32.2432 43.4987 33.396C44.4987 34.5488 44.9987 35.8474 44.9987 37.2918C44.9987 38.7641 44.464 40.2154 43.3945 41.646C42.3251 43.0766 40.1376 45.3057 36.832 48.3335L34.9987 50.0002L33.1654 48.3335C29.8043 45.2779 27.6029 43.0418 26.5612 41.6252C25.5195 40.2085 24.9987 38.7641 24.9987 37.2918ZM23.332 28.3335C23.8043 28.3335 24.2001 28.1738 24.5195 27.8543C24.839 27.5349 24.9987 27.1391 24.9987 26.6668C24.9987 26.1946 24.839 25.7988 24.5195 25.4793C24.2001 25.1599 23.8043 25.0002 23.332 25.0002C22.8598 25.0002 22.464 25.1599 22.1445 25.4793C21.8251 25.7988 21.6654 26.1946 21.6654 26.6668C21.6654 27.1391 21.8251 27.5349 22.1445 27.8543C22.464 28.1738 22.8598 28.3335 23.332 28.3335ZM35.1237 51.6668V48.3335H48.332V36.6668H43.4154V33.3335H48.332C49.2487 33.3335 50.0334 33.6599 50.6862 34.3127C51.339 34.9654 51.6654 35.7502 51.6654 36.6668V51.6668H35.1237ZM21.6654 48.3335H35.1237V51.6668H18.332V36.6668C18.332 35.7502 18.6515 34.9654 19.2904 34.3127C19.9293 33.6599 20.7209 33.3335 21.6654 33.3335H26.582V36.6668H21.6654V48.3335ZM23.332 31.6668C21.9154 31.6668 20.7279 31.1877 19.7695 30.2293C18.8112 29.271 18.332 28.0835 18.332 26.6668C18.332 25.2779 18.8112 24.0974 19.7695 23.1252C20.7279 22.1529 21.9154 21.6668 23.332 21.6668C24.7209 21.6668 25.9015 22.1529 26.8737 23.1252C27.8459 24.0974 28.332 25.2779 28.332 26.6668C28.332 28.0835 27.8459 29.271 26.8737 30.2293C25.9015 31.1877 24.7209 31.6668 23.332 31.6668Z" fill="white"/>
</g>
</svg>
