<svg width="64" height="64" viewBox="0 0 64 64" fill="none" xmlns="http://www.w3.org/2000/svg">
<rect x="1" y="1" width="62" height="62" rx="11" fill="black"/>
<rect x="1" y="1" width="62" height="62" rx="11" stroke="black" stroke-width="2"/>
<mask id="mask0_384_6863" style="mask-type:alpha" maskUnits="userSpaceOnUse" x="17" y="17" width="30" height="30">
<rect x="17" y="17" width="30" height="30" fill="white"/>
</mask>
<g mask="url(#mask0_384_6863)">
<path d="M30.125 32.625C30.4792 32.625 30.776 32.5052 31.0156 32.2656C31.2552 32.026 31.375 31.7292 31.375 31.375C31.375 31.0208 31.2552 30.724 31.0156 30.4844C30.776 30.2448 30.4792 30.125 30.125 30.125C29.7708 30.125 29.474 30.2448 29.2344 30.4844C28.9948 30.724 28.875 31.0208 28.875 31.375C28.875 31.7292 28.9948 32.026 29.2344 32.2656C29.474 32.5052 29.7708 32.625 30.125 32.625ZM33.875 32.625C34.2292 32.625 34.526 32.5052 34.7656 32.2656C35.0052 32.026 35.125 31.7292 35.125 31.375C35.125 31.0208 35.0052 30.724 34.7656 30.4844C34.526 30.2448 34.2292 30.125 33.875 30.125C33.5208 30.125 33.224 30.2448 32.9844 30.4844C32.7448 30.724 32.625 31.0208 32.625 31.375C32.625 31.7292 32.7448 32.026 32.9844 32.2656C33.224 32.5052 33.5208 32.625 33.875 32.625ZM26.375 32.625C26.7292 32.625 27.026 32.5052 27.2656 32.2656C27.5052 32.026 27.625 31.7292 27.625 31.375C27.625 31.0208 27.5052 30.724 27.2656 30.4844C27.026 30.2448 26.7292 30.125 26.375 30.125C26.0208 30.125 25.724 30.2448 25.4844 30.4844C25.2448 30.724 25.125 31.0208 25.125 31.375C25.125 31.7292 25.2448 32.026 25.4844 32.2656C25.724 32.5052 26.0208 32.625 26.375 32.625ZM37.625 32.625C37.9792 32.625 38.276 32.5052 38.5156 32.2656C38.7552 32.026 38.875 31.7292 38.875 31.375C38.875 31.0208 38.7552 30.724 38.5156 30.4844C38.276 30.2448 37.9792 30.125 37.625 30.125C37.2708 30.125 36.974 30.2448 36.7344 30.4844C36.4948 30.724 36.375 31.0208 36.375 31.375C36.375 31.7292 36.4948 32.026 36.7344 32.2656C36.974 32.5052 37.2708 32.625 37.625 32.625ZM22 43.25V40.75C21.3125 40.75 20.724 40.5052 20.2344 40.0156C19.7448 39.526 19.5 38.9375 19.5 38.25V24.5C19.5 23.8125 19.7448 23.224 20.2344 22.7344C20.724 22.2448 21.3125 22 22 22H42C42.6875 22 43.276 22.2448 43.7656 22.7344C44.2552 23.224 44.5 23.8125 44.5 24.5V38.25C44.5 38.9375 44.2552 39.526 43.7656 40.0156C43.276 40.5052 42.6875 40.75 42 40.75V43.25H40.75L39.9375 40.75H24.0938L23.25 43.25H22ZM22 38.25H42V24.5H22V38.25Z" fill="white"/>
</g>
</svg>
