<svg width="100" height="100" viewBox="0 0 100 100" fill="none" xmlns="http://www.w3.org/2000/svg">
<rect x="1.5" y="1.5" width="97" height="97" rx="13.5" fill="black"/>
<rect x="1.5" y="1.5" width="97" height="97" rx="13.5" stroke="white" stroke-width="3"/>
<path d="M45.7905 14.3315V32.8228C45.7905 34.9191 45.7222 36.3945 45.5854 37.249C45.4487 38.0921 45.0443 38.9637 44.3721 39.8638C43.6999 40.7524 42.8112 41.4303 41.7061 41.8975C40.6123 42.3532 39.3192 42.5811 37.8267 42.5811C36.1746 42.5811 34.7163 42.3076 33.4517 41.7607C32.187 41.2139 31.2414 40.5018 30.6147 39.6245C29.9881 38.7472 29.6178 37.8244 29.5039 36.856C29.39 35.8761 29.333 33.8254 29.333 30.7036V14.3315H36.5278V35.0786C36.5278 36.2863 36.5905 37.061 36.7158 37.4028C36.8525 37.7332 37.1203 37.8984 37.519 37.8984C37.9748 37.8984 38.2653 37.7161 38.3906 37.3516C38.5273 36.9756 38.5957 36.0983 38.5957 34.7197V14.3315H45.7905ZM70.1538 14.3315L67.6416 26.5679L71.4355 42H64.7705C63.973 39.2428 63.2438 35.8875 62.583 31.9341C62.4007 33.6772 62.1501 35.5286 61.8311 37.4883L61.1475 42H54.1406L56.7383 26.5679L54.1406 14.3315H61.0962C61.2215 15.0949 61.4722 16.3652 61.8481 18.1426C62.1444 19.4984 62.3893 20.7402 62.583 21.8682L64.1211 14.3315H70.1538ZM45.7905 57.3315V75.8228C45.7905 77.9191 45.7222 79.3945 45.5854 80.249C45.4487 81.0921 45.0443 81.9637 44.3721 82.8638C43.6999 83.7524 42.8112 84.4303 41.7061 84.8975C40.6123 85.3532 39.3192 85.5811 37.8267 85.5811C36.1746 85.5811 34.7163 85.3076 33.4517 84.7607C32.187 84.2139 31.2414 83.5018 30.6147 82.6245C29.9881 81.7472 29.6178 80.8244 29.5039 79.856C29.39 78.8761 29.333 76.8254 29.333 73.7036V57.3315H36.5278V78.0786C36.5278 79.2863 36.5905 80.061 36.7158 80.4028C36.8525 80.7332 37.1203 80.8984 37.519 80.8984C37.9748 80.8984 38.2653 80.7161 38.3906 80.3516C38.5273 79.9756 38.5957 79.0983 38.5957 77.7197V57.3315H45.7905ZM62.771 57.3315V85H55.5762V57.3315H62.771Z" fill="white"/>
</svg>
