<svg width="64" height="64" viewBox="0 0 64 64" fill="none" xmlns="http://www.w3.org/2000/svg">
<rect x="1" y="1" width="62" height="62" rx="11" fill="black"/>
<rect x="1" y="1" width="62" height="62" rx="11" stroke="black" stroke-width="2"/>
<mask id="mask0_384_6867" style="mask-type:alpha" maskUnits="userSpaceOnUse" x="17" y="17" width="30" height="30">
<rect x="17" y="17" width="30" height="30" fill="white"/>
</mask>
<g mask="url(#mask0_384_6867)">
<path d="M22 23.25H32V22H22V23.25ZM22 44.5C21.3125 44.5 20.724 44.2552 20.2344 43.7656C19.7448 43.276 19.5 42.6875 19.5 42V22C19.5 21.3125 19.7448 20.724 20.2344 20.2344C20.724 19.7448 21.3125 19.5 22 19.5H32C32.6875 19.5 33.276 19.7448 33.7656 20.2344C34.2552 20.724 34.5 21.3125 34.5 22V26.8125C34.0208 27.0625 33.5729 27.349 33.1562 27.6719C32.7396 27.9948 32.3542 28.3542 32 28.75V25.75H22V38.25H30.0312C30.1979 38.7083 30.3906 39.1458 30.6094 39.5625C30.8281 39.9792 31.0833 40.375 31.375 40.75H22V42H32V41.5C32.3125 41.8542 32.6458 42.1771 33 42.4688C33.3542 42.7604 33.7396 43.0208 34.1562 43.25C33.9271 43.625 33.6302 43.9271 33.2656 44.1563C32.901 44.3854 32.4792 44.5 32 44.5H22ZM38.875 39.5C40.0833 39.5 41.1146 39.0729 41.9688 38.2188C42.8229 37.3646 43.25 36.3333 43.25 35.125C43.25 33.9167 42.8229 32.8854 41.9688 32.0313C41.1146 31.1771 40.0833 30.75 38.875 30.75C37.6667 30.75 36.6354 31.1771 35.7812 32.0313C34.9271 32.8854 34.5 33.9167 34.5 35.125C34.5 36.3333 34.9271 37.3646 35.7812 38.2188C36.6354 39.0729 37.6667 39.5 38.875 39.5ZM35.75 44.5V41.25C34.625 40.6875 33.7188 39.8646 33.0312 38.7813C32.3438 37.6979 32 36.4792 32 35.125C32 33.7708 32.3438 32.5521 33.0312 31.4688C33.7188 30.3854 34.625 29.5625 35.75 29V25.75H42V29C43.125 29.5625 44.0313 30.3854 44.7188 31.4688C45.4063 32.5521 45.75 33.7708 45.75 35.125C45.75 36.4792 45.4063 37.6979 44.7188 38.7813C44.0313 39.8646 43.125 40.6875 42 41.25V44.5H35.75Z" fill="white"/>
</g>
</svg>
