<svg width="204" height="51" viewBox="0 0 204 51" fill="none" xmlns="http://www.w3.org/2000/svg">
<rect x="1" y="0.5" width="202" height="50" stroke="white"/>
<path d="M37.54 41.4H31.26L25.78 26.84V41.4H17.46V9.2H25.5L34.42 32.84L43.34 9.2H51.34V41.4H43.02V26.84L37.54 41.4ZM63.7525 9.2H72.4725L82.6325 41.4H73.9125L72.5925 36.24H63.5925L62.2725 41.4H53.5925L63.7525 9.2ZM70.9525 29.76L68.1125 18.56L65.2325 29.76H70.9525ZM100.642 38.4L100.402 34.4C100.242 31.52 99.2819 30.6 96.9219 30.6H93.5619V41.4H84.8819V9.2H98.8419C105.842 9.2 109.482 13.12 109.482 19.04C109.482 23.4 107.322 26.16 104.002 27.12C107.322 27.72 108.642 29.76 108.922 34L109.202 38.36C109.282 39.68 109.522 40.64 109.882 41.4H101.242C100.882 40.72 100.722 39.48 100.642 38.4ZM93.5619 23.72H97.0819C99.5219 23.72 100.802 22.6 100.802 19.92C100.802 17.16 99.5219 16.08 97.0819 16.08H93.5619V23.72ZM129.543 41.4H120.823L110.663 9.2H119.343L125.183 31.6L130.983 9.2H139.703L129.543 41.4ZM141.952 41.4V9.2H162.912V16.08H150.632V21.44H161.272V28.36H150.632V34.56H163.152V41.4H141.952ZM166.405 41.4V9.2H175.085V34.56H187.605V41.4H166.405Z" fill="white"/>
</svg>
